<svg xmlns="http://www.w3.org/2000/svg" version="1.1" xmlns:xlink="http://www.w3.org/1999/xlink" xmlns:svgjs="http://svgjs.dev/svgjs" width="2000" height="1500" viewBox="0 0 2000 1500"><rect width="2000" height="1500" fill="#0023ff"></rect><g transform="matrix(0.75,0,0,0.75,249.090909090909,282.7536437246963)"><svg viewBox="0 0 396 247" data-background-color="#0023ff" preserveAspectRatio="xMidYMid meet" height="1247" width="2000" xmlns="http://www.w3.org/2000/svg" xmlns:xlink="http://www.w3.org/1999/xlink"><g id="tight-bounds" transform="matrix(1,0,0,1,0.2400000000000091,-0.09999999999999432)"><svg viewBox="0 0 395.52 247.2" height="247.2" width="395.52"><g><svg></svg></g><g><svg viewBox="0 0 395.52 247.2" height="247.2" width="395.52"><g transform="matrix(1,0,0,1,75.54432,99.84474619604102)"><svg viewBox="0 0 244.43135999999998 47.51050760791795" height="47.51050760791795" width="244.43135999999998"><g><svg viewBox="0 0 244.43135999999998 47.51050760791795" height="47.51050760791795" width="244.43135999999998"><g><svg viewBox="0 0 244.43135999999998 47.51050760791795" height="47.51050760791795" width="244.43135999999998"><g><svg viewBox="0 0 244.43135999999998 47.51050760791795" height="47.51050760791795" width="244.43135999999998"><g id="textblocktransform"><svg viewBox="0 0 244.43135999999998 47.51050760791795" height="47.51050760791795" width="244.43135999999998" id="textblock"><g><svg viewBox="0 0 244.43135999999998 47.51050760791795" height="47.51050760791795" width="244.43135999999998"><g transform="matrix(1,0,0,1,0,0)"><svg width="244.43135999999998" viewBox="-0.85 -31.25 209.63 40.75" height="47.51050760791795" data-palette-color="#f8fafc"><path d="M39.55-21.4L39.55-21.4Q37.7-20.65 36.38-20.65 35.05-20.65 35.05-21.2L35.05-21.2Q35.05-21.55 36.52-21.6 38-21.65 38.65-21.95L38.65-21.95Q40.55-22.95 40.55-24.9L40.55-24.9Q40.55-25.9 40-27L40-27Q38.4-29.85 32.25-29.85L32.25-29.85Q28.7-29.85 25.15-28.78 21.6-27.7 19.2-25.48 16.8-23.25 16.8-21.35L16.8-21.35Q16.8-18.45 22.55-17.1L22.55-17.1 28.45-16Q32-15.35 33.75-14.2L33.75-14.2Q36.05-12.8 36.05-10.2L36.05-10.2Q36.05-9.15 35.7-7.95L35.7-7.95Q34.1-2.55 27.45 0.3L27.45 0.3Q21.9 2.75 14.35 2.75L14.35 2.75Q12.2 2.75 10.6 2.55L10.6 2.55Q12.2 3.45 14.8 4.1L14.8 4.1Q15 4.15 15 4.3L15 4.3Q15 4.75 13.95 4.75L13.95 4.75Q11.9 4.75 8.85 2.3L8.85 2.3Q4.7 1.65 2.65 0L2.65 0Q1.35-1.05 0.25-3.1-0.85-5.15-0.85-6.8-0.85-8.45-0.2-9.55L-0.2-9.55Q1.3-12.2 3.6-12.2L3.6-12.2Q5.35-12.2 5.65-9.25L5.65-9.25Q6.35-3.55 6.6-2.75L6.6-2.75Q7.35-0.3 9.15 1.4L9.15 1.4Q11.25 1.85 13.7 1.85L13.7 1.85Q19.1 1.85 24.3-0.3 29.5-2.45 31.8-6.4L31.8-6.4Q32.75-7.95 32.75-9.15L32.75-9.15Q32.75-11.5 28.6-12.8L28.6-12.8 19.8-14.8Q17.1-15.45 15.48-16.95 13.85-18.45 13.85-20.4L13.85-20.4Q13.85-23.4 17.6-26.4L17.6-26.4Q20.45-28.7 24.58-29.98 28.7-31.25 32.68-31.25 36.65-31.25 39.25-30.1L39.25-30.1Q42.6-28.55 42.6-25.58 42.6-22.6 39.55-21.4ZM7.35 0.9L7.35 0.9Q4.45-2.3 3.65-7.85L3.65-7.85Q3.2-11 2.8-11 2.4-11 2.05-10.78 1.7-10.55 1.35-9.8 1-9.05 1-7.85L1-7.85Q1-4 3.7-1.25L3.7-1.25Q5.05 0.15 7.35 0.9ZM45.45-15.8L45.45-15.8Q46.8-15.8 46.8-14.75L46.8-14.75Q46.8-14.45 46.65-14.15L46.65-14.15Q42.15-7.9 41.25-4.7L41.25-4.7Q52.9-16.35 55.4-16.35L55.4-16.35Q55.65-16.4 55.85-16.4L55.85-16.4Q57.25-16.4 57.25-15.15L57.25-15.15Q57.25-14.9 57.15-14.65 57.05-14.4 55.15-11.95L55.15-11.95Q52.95-9.35 51.42-6.95 49.9-4.55 49.9-2.95 49.9-1.35 50.6-1.35L50.6-1.35Q52.8-1.35 58.25-7.4L58.25-7.4Q58.35-7.5 58.6-7.85L58.6-7.85Q59.35-8.75 59.5-8.75 59.65-8.75 59.65-8.25 59.65-7.75 58.95-6.95L58.95-6.95Q52.75 0.1 50.15 0.1L50.15 0.1Q47.7 0.1 47.7-2.6 47.7-5.3 49.7-8.8L49.7-8.8 52.9-14Q49.5-11.5 46.85-8.53 44.2-5.55 42.02-2.75 39.85 0.05 39.5 0.05L39.5 0.05Q38.75 0.05 38.32-0.58 37.9-1.2 37.9-2.13 37.9-3.05 38.55-4.6 39.2-6.15 40.2-8.35L40.2-8.35 37.2-5.2Q36.1-4.1 35.82-4.1 35.55-4.1 35.55-4.42 35.55-4.75 35.95-5.15L35.95-5.15Q37.8-7 39.15-8.7L39.15-8.7Q40.45-10.4 44.5-15.2L44.5-15.2Q44.95-15.8 45.45-15.8ZM74.15-14.95L74.15-14.95 74.84-15.1Q75.4-15.1 75.9-14.65 76.4-14.2 76.4-13.95 76.4-13.7 73.3-9.13 70.2-4.55 70.2-2.75L70.2-2.75Q70.2-2.6 70.25-2.45L70.25-2.45Q70.5-1.3 71.34-1.3L71.34-1.3Q73.95-1.3 80.84-9.9L80.84-9.9Q81-10.1 81.2-10.1 81.4-10.1 81.4-9.73 81.4-9.35 80.95-8.75L80.95-8.75Q74.55-0.2 71.2-0.2L71.2-0.2Q70.75-0.2 70.34-0.35L70.34-0.35Q68.15-1.2 68.15-3.65L68.15-3.65Q68.15-4.5 68.34-5.35L68.34-5.35 65.25-2.35Q62.3 0.25 60.97 0.25 59.65 0.25 58.45-0.6L58.45-0.6Q57.09-1.6 57.09-3.25L57.09-3.25Q57.09-6.9 62.2-11.98 67.3-17.05 71.55-17.05L71.55-17.05Q73.2-17.05 73.75-15.9L73.75-15.9Q73.9-15.5 74-15.23 74.09-14.95 74.15-14.95ZM59.2-2.65L59.2-2.65Q59.2-0.85 60.45-0.85L60.45-0.85Q63.34-0.85 68.34-7.2L68.34-7.2 73.65-14.5Q73.25-15.2 72.34-15.2L72.34-15.2Q69.3-15.2 64.25-10.48 59.2-5.75 59.2-2.65ZM96.99-11.3L96.99-11.3Q96.99-7.25 92.37-3.63 87.74 0 84.34 0L84.34 0Q82.09 0 81.07-0.3 80.04-0.6 78.79-2.1L78.79-2.1Q77.94-1.4 76.49 1.48 75.04 4.35 75.04 6.4L75.04 6.4Q75.04 7.35 75.99 8.9L75.99 8.9Q76.09 9.15 75.84 9.33 75.59 9.5 75.47 9.5 75.34 9.5 75.24 9.45L75.24 9.45Q73.14 8.3 73.14 4.98 73.14 1.65 78.67-6.53 84.19-14.7 86.29-15.4L86.29-15.4Q86.79-15.5 86.94-15.5L86.94-15.5Q87.79-15.5 87.79-13.65L87.79-13.65Q88.29-14.15 89.84-14.6L89.84-14.6Q91.74-15.1 92.54-15.1L92.54-15.1Q94.34-15.1 95.67-14.08 96.99-13.05 96.99-11.3ZM94.44-11.8L94.44-11.8Q94.44-13.7 92.19-13.7 89.94-13.7 88.09-12.75L88.09-12.75Q87.24-12.35 83.39-8.35 79.54-4.35 79.54-3.2L79.54-3.2Q79.54-2.3 80.92-1.85 82.29-1.4 83.69-1.4L83.69-1.4Q86.44-1.4 90.44-4.53 94.44-7.65 94.44-11.8ZM136.54-21.4L136.54-21.4Q134.69-20.65 133.37-20.65 132.04-20.65 132.04-21.2L132.04-21.2Q132.04-21.55 133.52-21.6 134.99-21.65 135.64-21.95L135.64-21.95Q137.54-22.95 137.54-24.9L137.54-24.9Q137.54-25.9 136.99-27L136.99-27Q135.39-29.85 129.24-29.85L129.24-29.85Q125.69-29.85 122.14-28.78 118.59-27.7 116.19-25.48 113.79-23.25 113.79-21.35L113.79-21.35Q113.79-18.45 119.54-17.1L119.54-17.1 125.44-16Q128.99-15.35 130.74-14.2L130.74-14.2Q133.04-12.8 133.04-10.2L133.04-10.2Q133.04-9.15 132.69-7.95L132.69-7.95Q131.09-2.55 124.44 0.3L124.44 0.3Q118.89 2.75 111.34 2.75L111.34 2.75Q109.19 2.75 107.59 2.55L107.59 2.55Q109.19 3.45 111.79 4.1L111.79 4.1Q111.99 4.15 111.99 4.3L111.99 4.3Q111.99 4.75 110.94 4.75L110.94 4.75Q108.89 4.75 105.84 2.3L105.84 2.3Q101.69 1.65 99.64 0L99.64 0Q98.34-1.05 97.24-3.1 96.14-5.15 96.14-6.8 96.14-8.45 96.79-9.55L96.79-9.55Q98.29-12.2 100.59-12.2L100.59-12.2Q102.34-12.2 102.64-9.25L102.64-9.25Q103.34-3.55 103.59-2.75L103.59-2.75Q104.34-0.3 106.14 1.4L106.14 1.4Q108.24 1.85 110.69 1.85L110.69 1.85Q116.09 1.85 121.29-0.3 126.49-2.45 128.79-6.4L128.79-6.4Q129.74-7.95 129.74-9.15L129.74-9.15Q129.74-11.5 125.59-12.8L125.59-12.8 116.79-14.8Q114.09-15.45 112.47-16.95 110.84-18.45 110.84-20.4L110.84-20.4Q110.84-23.4 114.59-26.4L114.59-26.4Q117.44-28.7 121.57-29.98 125.69-31.25 129.67-31.25 133.64-31.25 136.24-30.1L136.24-30.1Q139.59-28.55 139.59-25.58 139.59-22.6 136.54-21.4ZM104.34 0.9L104.34 0.9Q101.44-2.3 100.64-7.85L100.64-7.85Q100.19-11 99.79-11 99.39-11 99.04-10.78 98.69-10.55 98.34-9.8 97.99-9.05 97.99-7.85L97.99-7.85Q97.99-4 100.69-1.25L100.69-1.25Q102.04 0.15 104.34 0.9ZM144.64 0.6L144.64 0.6Q140.69 0.6 137.94-5.65L137.94-5.65Q137.24-4.6 134.79 0.25L134.79 0.25Q132.99-0.45 132.99-1.65L132.99-1.65Q132.99-3.8 139.44-13.45 145.89-23.1 148.29-24.8L148.29-24.8Q148.49-24.95 149.09-24.95L149.09-24.95Q150.64-24.95 150.64-24.15L150.64-24.15Q150.64-23.75 147.16-19.65 143.69-15.55 143.29-14.7L143.29-14.7Q147.84-17.05 150.54-17.05L150.54-17.05Q152.09-17.05 153.19-15.8L153.19-15.8Q154.24-14.75 154.24-13.65L154.24-13.65Q154.24-13.5 154.24-13.35L154.24-13.35Q153.84-10.5 150.24-8.65L150.24-8.65Q147.34-7.1 144.84-7.1 142.34-7.1 141.34-7.75L141.34-7.75Q141.04-7.8 140.86-7.6 140.69-7.4 140.79-7.1L140.79-7.1Q142.19-0.9 145.44-0.9L145.44-0.9Q147.14-0.9 149.81-2.8 152.49-4.7 155.39-8.15L155.39-8.15Q155.74-8.5 156.01-8.5 156.29-8.5 156.29-8.22 156.29-7.95 155.94-7.45L155.94-7.45Q153.24-4.15 150.84-2.25L150.84-2.25Q147.19 0.6 144.64 0.6ZM151.84-14.7L151.84-14.7Q151.84-15.1 151.39-15.5 150.94-15.9 150.44-15.9L150.44-15.9Q147.74-15.9 143.96-13.65 140.19-11.4 139.34-8.55L139.34-8.55Q139.79-8.55 141.74-8.4L141.74-8.4Q143.99-8.4 147.64-10.25L147.64-10.25Q151.84-12.35 151.84-14.7ZM164.94-20.4Q165.69-20.4 166.36-19.93 167.04-19.45 167.04-18.8 167.04-18.15 166.41-17.68 165.79-17.2 165.04-17.2 164.29-17.2 163.66-17.75 163.04-18.3 163.04-19L163.04-19Q163.04-20.4 164.94-20.4L164.94-20.4ZM155.89 0.55L155.89 0.55Q153.34 0.55 153.34-2.75L153.34-2.75Q153.34-5.45 156.29-10.23 159.24-15 161.04-15.05L161.04-15.05Q161.54-15.05 162.16-14.65 162.79-14.25 162.79-13.85L162.79-13.85Q162.54-13.5 162.19-13.08 161.84-12.65 161.44-12.15 161.04-11.65 160.34-10.73 159.64-9.8 158.99-8.95L158.99-8.95Q155.24-4.1 155.24-2.27 155.24-0.45 156.49-0.45L156.49-0.45Q157.54-0.45 159.34-1.6L159.34-1.6Q163.54-4.2 165.99-7.3L165.99-7.3Q166.89-8.45 167.21-8.45 167.54-8.45 167.54-8.05 167.54-7.65 166.39-6.45 165.24-5.25 164.56-4.55 163.89-3.85 163.64-3.63 163.39-3.4 162.71-2.78 162.04-2.15 161.69-1.9 161.34-1.65 160.69-1.15 160.04-0.65 159.54-0.43 159.04-0.2 158.39 0.1L158.39 0.1Q157.34 0.55 155.89 0.55ZM167.33-2.5Q167.33-1 168.98-1 170.63-1 173.23-2.75 175.83-4.5 178.28-7.5L178.28-7.5Q178.88-8.3 179.23-8.3 179.58-8.3 179.58-8L179.58-8Q179.58-7.7 177.53-5.4L177.53-5.4Q172.53 0.1 169.18 0.1L169.18 0.1Q167.53 0.1 166.38-0.68 165.23-1.45 165.23-3.08 165.23-4.7 166.08-6.85L166.08-6.85Q167.53-10.25 170.73-15.4L170.73-15.4Q176.58-24.9 179.03-24.9L179.03-24.9Q179.53-24.9 180.06-24.53 180.58-24.15 180.63-23.7L180.63-23.7Q179.48-22.15 176.21-17.75 172.93-13.35 171.68-11.43 170.43-9.5 169.81-8.55 169.18-7.6 168.88-7.08 168.58-6.55 168.18-5.7L168.18-5.7Q167.33-4 167.33-2.5ZM179.48-2.5Q179.48-1 181.13-1 182.78-1 185.38-2.75 187.98-4.5 190.43-7.5L190.43-7.5Q191.03-8.3 191.38-8.3 191.73-8.3 191.73-8L191.73-8Q191.73-7.7 189.68-5.4L189.68-5.4Q184.68 0.1 181.33 0.1L181.33 0.1Q179.68 0.1 178.53-0.68 177.38-1.45 177.38-3.08 177.38-4.7 178.23-6.85L178.23-6.85Q179.68-10.25 182.88-15.4L182.88-15.4Q188.73-24.9 191.18-24.9L191.18-24.9Q191.68-24.9 192.21-24.53 192.73-24.15 192.78-23.7L192.78-23.7Q191.63-22.15 188.36-17.75 185.08-13.35 183.83-11.43 182.58-9.5 181.96-8.55 181.33-7.6 181.03-7.08 180.73-6.55 180.33-5.7L180.33-5.7Q179.48-4 179.48-2.5ZM193.03-2.05L193.03-2.05Q191.03-0.65 190.18-0.65L190.18-0.65Q189.03-0.65 189.03-1.9L189.03-1.9Q189.03-2.35 189.33-3 189.63-3.65 189.93-3.65L189.93-3.65Q190.38-3.65 190.13-2.9L190.13-2.9Q189.98-2.15 190.58-2.15 191.18-2.15 192.03-2.75L192.03-2.75 190.13-4.2Q190.03-4.3 190.03-4.55 190.03-4.8 190.53-5.28 191.03-5.75 191.3-5.75 191.58-5.75 193.73-4.05L193.73-4.05Q199.93-11.05 202.83-13.25L202.83-13.25Q198.88-14.45 196.98-14.45L196.98-14.45Q196.43-14.45 195.93-14.38 195.43-14.3 194.85-13.78 194.28-13.25 194.28-12.6 194.28-11.95 194.83-11.53 195.38-11.1 195.38-10.85 195.38-10.6 195-10.6 194.63-10.6 193.78-11.6L193.78-11.6Q192.98-12.6 192.98-13.65L192.98-13.65Q192.98-15.4 195.53-15.95L195.53-15.95Q196.88-16.2 198.28-16.2 199.68-16.2 205.18-14.4L205.18-14.4Q205.88-14.8 206.68-14.8L206.68-14.8Q208.78-14.8 208.78-13.55L208.78-13.55Q208.78-13.05 208.13-12.63 207.48-12.2 206.58-12.2 205.68-12.2 204.93-12.55L204.93-12.55Q200.18-9.6 194.73-3.25L194.73-3.25 196.53-1.85Q198.68-0.45 201.53-0.45 204.38-0.45 205.73-1.35 207.08-2.25 207.08-3.65L207.08-3.65Q207.08-4.3 206.83-4.88 206.58-5.45 207.28-5.45L207.28-5.45Q207.53-5.45 207.78-4.88 208.03-4.3 208.03-3.5L208.03-3.5Q208.03-1.5 206.13-0.2 204.23 1.1 201.23 1.1L201.23 1.1Q197.93 1.1 195.78-0.15L195.78-0.15Q194.93-0.6 193.03-2.05Z" opacity="1" transform="matrix(1,0,0,1,0,0)" fill="#f8fafc" class="wordmark-text-0" data-fill-palette-color="primary" id="text-0"></path></svg></g></svg></g></svg></g></svg></g><g></g></svg></g></svg></g></svg></g><g><path d="M80.655 88.629A122.216 122.216 0 0 1 314.865 88.629L310.581 88.629A117.931 117.931 0 0 0 84.939 88.629L80.655 88.629M80.655 158.571A122.216 122.216 0 0 0 314.865 158.571L310.581 158.571A117.931 117.931 0 0 1 84.939 158.571L80.655 158.571" fill="#f8fafc" stroke="transparent" data-fill-palette-color="tertiary"></path></g></svg></g><defs></defs></svg><rect width="395.52" height="247.2" fill="none" stroke="none" visibility="hidden"></rect></g></svg></g></svg>